<?xml version="1.0" standalone="no"?>
<!DOCTYPE svg PUBLIC "-//W3C//DTD SVG 20010904//EN"
 "http://www.w3.org/TR/2001/REC-SVG-20010904/DTD/svg10.dtd">
<svg version="1.0" xmlns="http://www.w3.org/2000/svg"
 width="1500.000000pt" height="1500.000000pt" viewBox="0 0 1500.000000 1500.000000"
 preserveAspectRatio="xMidYMid meet">
<metadata>
Created by potrace 1.16, written by Peter Selinger 2001-2019
</metadata>
<g transform="translate(0.000000,1500.000000) scale(0.100000,-0.100000)"
fill="#000000" stroke="none">
<path d="M6918 8829 c-390 -587 -613 -1110 -728 -1704 -55 -285 -85 -760 -61
-965 71 -599 470 -1066 1040 -1216 123 -32 153 -30 66 4 -168 67 -324 200
-412 354 -65 113 -98 281 -81 415 11 96 48 191 182 470 58 123 119 255 135
295 84 212 129 412 138 611 3 70 10 127 14 127 17 0 176 -78 244 -120 244
-150 507 -415 667 -673 100 -161 179 -352 215 -520 22 -102 24 -308 4 -387
-70 -279 -264 -493 -536 -591 l-50 -18 45 6 c70 9 237 61 325 100 432 195 737
576 825 1032 70 360 4 678 -195 942 -133 178 -323 339 -735 624 -277 192 -410
296 -539 420 -173 167 -296 350 -365 543 -32 90 -66 252 -67 324 -2 119 -4
118 -131 -73z"/>
</g>
</svg>
